<svg width="16" height="15" viewBox="0 0 16 15" xmlns="http://www.w3.org/2000/svg" class="metamask">
  <path
    fill-rule="evenodd"
    d="m.80977778 0-.80977778 2.41601058.52977778 2.5629545-.34311111.26954745.49777777.39034798-.37866666.29749384.504.45976321-.32.21816214.73244444.85642166-1.08444444 3.47076144 1.02044444 3.4914959 3.66222222-.9691087 1.944 1.53615h2.43288889l2.11822227-1.5740129 3.5262222 1.0069716 1.0213333-3.4923974h.0044445l-1.0897778-3.46985994.7315555-.85642166-.32-.21726065.5048889-.45976321-.3786666-.29749384.4977777-.39124947-.3431111-.27044894.5297778-2.56205301-.8106667-2.41601058-5.1004444 1.89945309h-4.1768889zm9.14133333 8.52004327 2.08355559.99435062-2.91555559.85191421zm-5.98577778.99164613 2.08444445-.99164613.832 1.84626483zm2.80088889 2.8379109.36177778-.2109501h1.744l.34044444.2217681.11466667 1.28914h-2.68z"
    transform="">
  </path>
</svg>
